<svg width="17" height="16" viewBox="0 0 17 16" fill="none"
     xmlns="http://www.w3.org/2000/svg">
    <path d="M15.7188 7.21875C15.2875 7.21875 14.9375 7.56875 14.9375 8C14.9375 11.55 12.05 14.4375 8.5 14.4375C4.95 14.4375 2.0625 11.55 2.0625 8C2.0625 7.56875 1.7125 7.21875 1.28125 7.21875C0.85 7.21875 0.5 7.56875 0.5 8C0.5 10.1375 1.33125 12.1469 2.84375 13.6562C4.35625 15.1687 6.3625 16 8.5 16C10.6375 16 12.6469 15.1687 14.1562 13.6562C15.6687 12.1438 16.5 10.1375 16.5 8C16.5 7.56875 16.15 7.21875 15.7188 7.21875Z"
          fill="#176C77"/>
    <path d="M7.42891 10.7375C7.71641 11.025 8.09766 11.1812 8.50078 11.1812C8.90703 11.1812 9.28828 11.0219 9.57266 10.7375L11.5383 8.77187C11.8445 8.46562 11.8445 7.97187 11.5383 7.66562C11.232 7.35937 10.7383 7.35937 10.432 7.66562L9.28203 8.81875V0.78125C9.28203 0.35 8.93203 0 8.50078 0C8.06953 0 7.71953 0.35 7.71953 0.78125V8.81875L6.56641 7.66562C6.26016 7.35937 5.76641 7.35937 5.46016 7.66562C5.15391 7.97187 5.15391 8.46562 5.46016 8.77187L7.42891 10.7375Z"
          fill="#176C77"/>
</svg>
