<svg width="16" height="17" viewBox="0 0 16 17" fill="none" xmlns="http://www.w3.org/2000/svg">
    <g clip-path="url(#clip0_759_2669)">
        <path d="M12.6666 8.53064C12.298 8.53064 12 8.82935 12 9.19727V14.5306C12 14.8979 11.7013 15.1973 11.3334 15.1973H2C1.63196 15.1973 1.33337 14.8979 1.33337 14.5306V5.19727C1.33337 4.82996 1.63196 4.53064 2 4.53064H7.33337C7.70203 4.53064 8 4.23193 8 3.86401C8 3.49597 7.70203 3.19727 7.33337 3.19727H2C0.897339 3.19727 0 4.0946 0 5.19727V14.5306C0 15.6333 0.897339 16.5306 2 16.5306H11.3334C12.436 16.5306 13.3334 15.6333 13.3334 14.5306V9.19727C13.3334 8.82861 13.0353 8.53064 12.6666 8.53064Z"
              fill="#0F3144"/>
        <path d="M6.25075 7.9231C6.20412 7.96973 6.17275 8.02905 6.15944 8.09302L5.68813 10.4504C5.66616 10.5597 5.70082 10.6724 5.77944 10.7517C5.84279 10.8151 5.92812 10.849 6.01552 10.849C6.03676 10.849 6.05886 10.847 6.08083 10.8424L8.43752 10.3711C8.50283 10.3577 8.56215 10.3264 8.60817 10.2797L13.8828 5.005L11.5261 2.64844L6.25075 7.9231Z"
              fill="#0F3144"/>
        <path d="M15.5117 1.01877C14.8618 0.368744 13.8044 0.368744 13.155 1.01877L12.2324 1.94138L14.5891 4.29807L15.5117 3.37534C15.8264 3.06137 15.9998 2.64267 15.9998 2.19736C15.9998 1.75204 15.8264 1.33334 15.5117 1.01877Z"
              fill="#0F3144"/>
    </g>
    <defs>
        <clipPath id="clip0_759_2669">
            <rect width="16" height="16" fill="white" transform="translate(0 0.5)"/>
        </clipPath>
    </defs>
</svg>
