<svg width="40" height="40" viewBox="0 0 40 40" fill="none" xmlns="http://www.w3.org/2000/svg">
<g clip-path="url(#clip0_2624_13840)">
<path d="M33.0196 17.6379V37.088C33.0196 38.6963 31.7159 39.9999 30.1077 39.9999H6.18531C4.57703 39.9999 3.27336 38.6962 3.27336 37.088V6.61898C3.27336 5.01031 4.57742 3.70703 6.18531 3.70703H19.0884L33.0196 17.6379Z" fill="#99B5BB"/>
<path d="M9.89234 36.293C8.28406 36.293 6.98039 34.9892 6.98039 33.381V2.91195C6.98031 1.30328 8.28438 0 9.89234 0H22.7953C25.0137 0 36.7266 11.7128 36.7266 13.9309V33.381C36.7266 34.9893 35.4228 36.293 33.8146 36.293H9.89234Z" fill="#F4F7FA"/>
<path d="M36.7266 13.9312V15.163C36.7266 12.5696 34.6236 10.4666 32.0303 10.4666H29.1719C27.564 10.4666 26.26 9.16258 26.26 7.55469V4.69633C26.26 2.10297 24.157 0 21.5636 0H22.7954C25.0134 0 27.1413 0.88125 28.7096 2.44961L34.2771 8.01711C35.8453 9.58539 36.7266 11.7132 36.7266 13.9312Z" fill="#AEC4C9"/>
<path d="M18.9543 22.2315V30.7452C18.9543 31.1125 19.2521 31.4102 19.6193 31.4102H24.0876C24.4549 31.4102 24.7526 31.1125 24.7526 30.7452V22.2315H26.6522C27.2446 22.2315 27.5414 21.5153 27.1225 21.0964L22.8778 16.8518C22.3121 16.2861 21.3949 16.2861 20.8292 16.8518L16.5846 21.0964C16.1657 21.5153 16.4624 22.2315 17.0548 22.2315H18.9543Z" fill="#346C77"/>
<path d="M16.6716 14.5154H27.0353C27.751 14.5154 28.3312 13.9352 28.3312 13.2195V13.1839C28.3312 12.4682 27.751 11.8881 27.0353 11.8881H16.6716C15.9559 11.8881 15.3757 12.4682 15.3757 13.1839V13.2195C15.3757 13.9352 15.9559 14.5154 16.6716 14.5154Z" fill="#346C77"/>
</g>
<defs>
<clipPath id="clip0_2624_13840">
<rect width="40" height="40" fill="white"/>
</clipPath>
</defs>
</svg>
