<svg width="14" height="14" viewBox="0 0 14 14" fill="none" xmlns="http://www.w3.org/2000/svg">
<g clip-path="url(#clip0_2611_13225)">
<path d="M8.23814 7.00014L13.7435 1.49482C14.0855 1.15307 14.0855 0.598568 13.7435 0.25682C13.4014 -0.0852201 12.8475 -0.0852201 12.5055 0.25682L7.00015 5.76215L1.49453 0.25682C1.15249 -0.0852201 0.59857 -0.0852201 0.25653 0.25682C-0.08551 0.598568 -0.08551 1.15307 0.25653 1.49482L5.76215 7.00014L0.25653 12.5055C-0.08551 12.8472 -0.08551 13.4017 0.25653 13.7435C0.42755 13.9142 0.651685 13.9997 0.875529 13.9997C1.09937 13.9997 1.32351 13.9142 1.49453 13.7432L7.00015 8.23785L12.5055 13.7432C12.6765 13.9142 12.9006 13.9997 13.1245 13.9997C13.3483 13.9997 13.5724 13.9142 13.7435 13.7432C14.0855 13.4014 14.0855 12.8469 13.7435 12.5052L8.23814 7.00014Z" fill="#292929"/>
</g>
<defs>
<clipPath id="clip0_2611_13225">
<rect width="14" height="14" fill="white"/>
</clipPath>
</defs>
</svg>
