<svg width="17" height="16" viewBox="0 0 17 16" fill="none"
     xmlns="http://www.w3.org/2000/svg">
    <path d="M14.5007 3.33398H2.50065C2.32384 3.33398 2.15427 3.40422 2.02925 3.52925C1.90422 3.65427 1.83398 3.82384 1.83398 4.00065C1.83398 4.17746 1.90422 4.34703 2.02925 4.47206C2.15427 4.59708 2.32384 4.66732 2.50065 4.66732H3.83398V12.6673C3.83414 13.1977 4.04491 13.7063 4.41995 14.0814C4.79498 14.4564 5.3036 14.6672 5.83398 14.6673H11.1673C11.6977 14.6672 12.2063 14.4564 12.5814 14.0814C12.9564 13.7063 13.1672 13.1977 13.1673 12.6673V4.66732H14.5007C14.6775 4.66732 14.847 4.59708 14.9721 4.47206C15.0971 4.34703 15.1673 4.17746 15.1673 4.00065C15.1673 3.82384 15.0971 3.65427 14.9721 3.52925C14.847 3.40422 14.6775 3.33398 14.5007 3.33398ZM7.83398 10.6673C7.83398 10.8441 7.76375 11.0137 7.63872 11.1387C7.5137 11.2637 7.34413 11.334 7.16732 11.334C6.99051 11.334 6.82094 11.2637 6.69591 11.1387C6.57089 11.0137 6.50065 10.8441 6.50065 10.6673V7.33398C6.50065 7.15717 6.57089 6.9876 6.69591 6.86258C6.82094 6.73756 6.99051 6.66732 7.16732 6.66732C7.34413 6.66732 7.5137 6.73756 7.63872 6.86258C7.76375 6.9876 7.83398 7.15717 7.83398 7.33398V10.6673ZM10.5007 10.6673C10.5007 10.8441 10.4304 11.0137 10.3054 11.1387C10.1804 11.2637 10.0108 11.334 9.83398 11.334C9.65717 11.334 9.4876 11.2637 9.36258 11.1387C9.23756 11.0137 9.16732 10.8441 9.16732 10.6673V7.33398C9.16732 7.15717 9.23756 6.9876 9.36258 6.86258C9.4876 6.73756 9.65717 6.66732 9.83398 6.66732C10.0108 6.66732 10.1804 6.73756 10.3054 6.86258C10.4304 6.9876 10.5007 7.15717 10.5007 7.33398V10.6673Z"
          fill="#176C77"/>
    <path d="M7.16667 2.66732H9.83333C10.0101 2.66732 10.1797 2.59708 10.3047 2.47206C10.4298 2.34703 10.5 2.17746 10.5 2.00065C10.5 1.82384 10.4298 1.65427 10.3047 1.52925C10.1797 1.40422 10.0101 1.33398 9.83333 1.33398H7.16667C6.98986 1.33398 6.82029 1.40422 6.69526 1.52925C6.57024 1.65427 6.5 1.82384 6.5 2.00065C6.5 2.17746 6.57024 2.34703 6.69526 2.47206C6.82029 2.59708 6.98986 2.66732 7.16667 2.66732Z"
          fill="#176C77"/>
</svg>
