<svg width="30" height="37" viewBox="0 0 30 37" fill="none" xmlns="http://www.w3.org/2000/svg">
<path d="M7.83334 4.83335V25.3334C7.83334 26.2395 8.19331 27.1086 8.83406 27.7493C9.47481 28.3901 10.3439 28.75 11.25 28.75H24.9167C25.8228 28.75 26.6919 28.3901 27.3326 27.7493C27.9734 27.1086 28.3333 26.2395 28.3333 25.3334V10.3718C28.3333 9.9166 28.2423 9.46603 28.0657 9.04652C27.8891 8.62701 27.6304 8.24702 27.3049 7.92885L21.6418 2.39044C21.0035 1.76631 20.1463 1.4168 19.2536 1.41669H11.25C10.3439 1.41669 9.47481 1.77666 8.83406 2.41741C8.19331 3.05815 7.83334 3.9272 7.83334 4.83335V4.83335Z" stroke="#1268B8" stroke-width="2" stroke-linecap="round" stroke-linejoin="round"/>
<path d="M21.5 28.75V32.1667C21.5 33.0729 21.14 33.9419 20.4993 34.5827C19.8585 35.2234 18.9895 35.5834 18.0833 35.5834H4.41667C3.51051 35.5834 2.64147 35.2234 2.00072 34.5827C1.35997 33.9419 1 33.0729 1 32.1667V13.375C1 12.4689 1.35997 11.5998 2.00072 10.9591C2.64147 10.3183 3.51051 9.95837 4.41667 9.95837H7.83333" stroke="#1268B8" stroke-width="2" stroke-linecap="round" stroke-linejoin="round"/>
</svg>
