<svg width="28" height="29" viewBox="0 0 28 29" fill="none" xmlns="http://www.w3.org/2000/svg">
<path d="M19.3543 25.0433L0.739798 25.0433C0.331246 25.0433 2.09356e-06 24.74 2.10991e-06 24.366L2.24806e-06 21.2055C2.26441e-06 20.8314 0.331246 20.5282 0.739798 20.5282L19.3543 20.5282L19.3543 17.9287C19.3543 16.7219 20.948 16.1176 21.8802 16.9709L27.1857 21.8279C27.7635 22.3569 27.7635 23.2146 27.1857 23.7435L21.8802 28.6006C20.9481 29.4539 19.3543 28.8495 19.3543 27.6427L19.3543 25.0433Z" fill="#1268B8"/>
<path d="M8.26472 8.47188L26.8793 8.47188C27.2878 8.47188 27.619 8.16863 27.619 7.79461L27.619 4.63405C27.619 4.26003 27.2878 3.95679 26.8793 3.95679L8.26472 3.95679L8.26472 1.35728C8.26472 0.150509 6.67102 -0.453836 5.73888 0.399461L0.433381 5.25651C-0.144461 5.78551 -0.144461 6.64315 0.433381 7.1721L5.73888 12.0291C6.67096 12.8824 8.26472 12.2781 8.26472 11.0713L8.26472 8.47188Z" fill="#1268B8"/>
</svg>
