<svg width="69" height="69" viewBox="0 0 69 69" fill="none" xmlns="http://www.w3.org/2000/svg">
<path d="M34.5 4.3125C42.5062 4.3125 50.1845 7.49296 55.8458 13.1542C61.507 18.8155 64.6875 26.4938 64.6875 34.5C64.6875 42.5062 61.507 50.1845 55.8458 55.8458C50.1845 61.507 42.5062 64.6875 34.5 64.6875C26.4938 64.6875 18.8155 61.507 13.1542 55.8458C7.49296 50.1845 4.3125 42.5062 4.3125 34.5C4.3125 26.4938 7.49296 18.8155 13.1542 13.1542C18.8155 7.49296 26.4938 4.3125 34.5 4.3125V4.3125ZM30.7395 40.4556L24.0336 33.7453C23.7932 33.5049 23.5078 33.3142 23.1937 33.1841C22.8795 33.054 22.5429 32.987 22.2029 32.987C21.8629 32.987 21.5263 33.054 21.2122 33.1841C20.8981 33.3142 20.6127 33.5049 20.3722 33.7453C19.8867 34.2308 19.614 34.8893 19.614 35.576C19.614 36.2626 19.8867 36.9211 20.3722 37.4066L28.911 45.9454C29.1507 46.187 29.4359 46.3788 29.7501 46.5096C30.0643 46.6405 30.4013 46.7079 30.7417 46.7079C31.082 46.7079 31.419 46.6405 31.7332 46.5096C32.0474 46.3788 32.3326 46.187 32.5723 45.9454L50.2536 28.2598C50.4972 28.0204 50.691 27.7351 50.8238 27.4204C50.9566 27.1058 51.0258 26.7679 51.0274 26.4263C51.029 26.0848 50.9629 25.7463 50.8331 25.4304C50.7032 25.1145 50.512 24.8274 50.2707 24.5857C50.0293 24.3441 49.7424 24.1526 49.4267 24.0223C49.1109 23.8921 48.7725 23.8256 48.4309 23.8268C48.0894 23.828 47.7514 23.8968 47.4366 24.0293C47.1218 24.1617 46.8363 24.3552 46.5966 24.5985L30.7395 40.4556Z" fill="#1268B8"/>
</svg>
