<svg width="14" height="14" viewBox="0 0 14 14" fill="none" xmlns="http://www.w3.org/2000/svg">
<path d="M7 14C10.866 14 14 10.866 14 7C14 3.13401 10.866 0 7 0C3.13401 0 0 3.13401 0 7C0 10.866 3.13401 14 7 14Z" fill="#00BBA7"/>
<path d="M10.4019 4.34429L10.3841 4.32625C10.2923 4.23442 10.1833 4.16159 10.0633 4.11189C9.94333 4.0622 9.81475 4.03662 9.6849 4.03662C9.55505 4.03662 9.42647 4.0622 9.3065 4.11189C9.18654 4.16159 9.07754 4.23442 8.98572 4.32625L5.77174 7.5405L5.01787 6.78664C4.92491 6.69366 4.81454 6.6199 4.69308 6.56958C4.57161 6.51926 4.44142 6.49336 4.30994 6.49336C4.17846 6.49336 4.04827 6.51926 3.9268 6.56958C3.80533 6.6199 3.69497 6.69366 3.60201 6.78664C3.50899 6.8796 3.4352 6.98998 3.38485 7.11148C3.33451 7.23297 3.30859 7.36319 3.30859 7.4947C3.30859 7.62622 3.33451 7.75644 3.38485 7.87793C3.4352 7.99942 3.50899 8.10981 3.60201 8.20277L5.05478 9.65554L5.07256 9.67359C5.16435 9.7654 5.27333 9.83824 5.39327 9.88793C5.51321 9.93762 5.64177 9.96319 5.7716 9.96319C5.90143 9.96319 6.02999 9.93762 6.14993 9.88793C6.26987 9.83824 6.37885 9.7654 6.47064 9.67359L6.47967 9.66457L10.4019 5.74211C10.5872 5.55674 10.6913 5.30533 10.6913 5.0432C10.6913 4.78107 10.5872 4.52967 10.4019 4.34429Z" fill="white"/>
</svg>
