<svg width="11" height="11" viewBox="0 0 11 11" fill="none" xmlns="http://www.w3.org/2000/svg">
<path d="M10.6486 10.0193L8.0306 7.29639C8.70374 6.49619 9.07255 5.48938 9.07255 4.44125C9.07255 1.99238 7.08017 0 4.63131 0C2.18244 0 0.190063 1.99238 0.190063 4.44125C0.190063 6.89011 2.18244 8.88249 4.63131 8.88249C5.55065 8.88249 6.42673 8.6052 7.17576 8.07882L9.81366 10.8224C9.92392 10.9369 10.0722 11 10.2311 11C10.3816 11 10.5243 10.9426 10.6326 10.8384C10.8628 10.6169 10.8701 10.2496 10.6486 10.0193ZM4.63131 1.15859C6.44141 1.15859 7.91397 2.63115 7.91397 4.44125C7.91397 6.25134 6.44141 7.72391 4.63131 7.72391C2.82121 7.72391 1.34865 6.25134 1.34865 4.44125C1.34865 2.63115 2.82121 1.15859 4.63131 1.15859Z" fill="#9EAAB3"/>
</svg>
