<svg width="67" height="67" viewBox="0 0 67 67" fill="none" xmlns="http://www.w3.org/2000/svg">
<path d="M33.5 4.1875C27.7025 4.1875 22.0353 5.90665 17.2149 9.12755C12.3944 12.3484 8.63739 16.9264 6.41879 22.2826C4.2002 27.6388 3.61972 33.5325 4.75074 39.2186C5.88177 44.9047 8.67352 50.1276 12.7729 54.2271C16.8724 58.3265 22.0954 61.1182 27.7814 62.2493C33.4675 63.3803 39.3613 62.7998 44.7174 60.5812C50.0736 58.3626 54.6516 54.6056 57.8725 49.7852C61.0934 44.9647 62.8125 39.2975 62.8125 33.5C62.8036 25.7286 59.7125 18.278 54.2173 12.7827C48.722 7.28749 41.2715 4.19637 33.5 4.1875V4.1875ZM33.5 58.625C26.8364 58.625 20.4458 55.9779 15.734 51.2661C11.0221 46.5542 8.37501 40.1636 8.37501 33.5C8.37501 26.8364 11.0221 20.4458 15.734 15.7339C20.4458 11.0221 26.8364 8.375 33.5 8.375V33.5L51.2571 51.2571C48.9284 53.5942 46.1609 55.4481 43.1136 56.7125C40.0663 57.9769 36.7992 58.6269 33.5 58.625Z" fill="#1268B8"/>
</svg>
