<svg xmlns="http://www.w3.org/2000/svg" width="14" height="14" viewBox="0 0 14 14" fill="none">
    <g clip-path="url(#clip0_337_1247)">
        <path d="M1.32713 13.9123C0.983892 13.9323 0.646328 13.8182 0.385622 13.5941C-0.128541 13.0768 -0.128541 12.2415 0.385622 11.7243L11.6441 0.465744C12.1789 -0.0346629 13.018 -0.00684553 13.5184 0.527929C13.9709 1.01152 13.9973 1.75482 13.5802 2.26924L2.25537 13.5941C1.99803 13.8149 1.66588 13.9288 1.32713 13.9123Z" fill="white"/>
        <path d="M12.5721 13.9124C12.2242 13.9109 11.8908 13.7728 11.6438 13.5278L0.385271 2.26923C-0.0910742 1.71297 -0.0263126 0.875829 0.529948 0.39944C1.02642 -0.0257248 1.75863 -0.0257248 2.25506 0.39944L13.5799 11.658C14.1145 12.1585 14.1422 12.9977 13.6416 13.5323C13.6217 13.5536 13.6011 13.5742 13.5799 13.5941C13.3026 13.8352 12.9376 13.9505 12.5721 13.9124Z" fill="white"/>
    </g>
    <defs>
        <clipPath id="clip0_337_1247">
            <rect width="14" height="14" fill="white"/>
        </clipPath>
    </defs>
</svg>
