<svg width="14" height="14" viewBox="0 0 14 14" fill="none" xmlns="http://www.w3.org/2000/svg">
<path d="M7 14C10.866 14 14 10.866 14 7C14 3.13401 10.866 0 7 0C3.13401 0 0 3.13401 0 7C0 10.866 3.13401 14 7 14Z" fill="#FD625E"/>
<path d="M9.53205 10.6914C9.37965 10.6919 9.22867 10.6621 9.08786 10.6038C8.94705 10.5455 8.81921 10.4599 8.71174 10.3518L7.00002 8.64064L5.2883 10.3526C5.07074 10.5702 4.77566 10.6924 4.46799 10.6924C4.16031 10.6924 3.86524 10.5702 3.64768 10.3526C3.43011 10.1351 3.30789 9.84 3.30789 9.53232C3.30789 9.22465 3.43011 8.92957 3.64768 8.71201L5.35939 7.00002L3.6474 5.2883C3.42984 5.07074 3.30762 4.77566 3.30762 4.46799C3.30762 4.16031 3.42984 3.86524 3.6474 3.64768C3.86496 3.43011 4.16004 3.30789 4.46771 3.30789C4.77539 3.30789 5.07047 3.43011 5.28803 3.64768L7.00002 5.35939L8.71174 3.6474C8.81946 3.53968 8.94735 3.45422 9.0881 3.39592C9.22885 3.33762 9.3797 3.30762 9.53205 3.30762C9.6844 3.30762 9.83525 3.33762 9.976 3.39592C10.1167 3.45422 10.2446 3.53968 10.3524 3.6474C10.4601 3.75513 10.5455 3.88301 10.6038 4.02376C10.6621 4.16451 10.6921 4.31537 10.6921 4.46771C10.6921 4.62006 10.6621 4.77091 10.6038 4.91166C10.5455 5.05241 10.4601 5.1803 10.3524 5.28803L8.64064 7.00002L10.3526 8.71174C10.5148 8.87393 10.6253 9.0806 10.6701 9.30558C10.7148 9.53057 10.6918 9.76377 10.604 9.97569C10.5162 10.1876 10.3675 10.3687 10.1767 10.4961C9.98598 10.6235 9.76172 10.6915 9.53232 10.6914H9.53205Z" fill="white"/>
</svg>
