<svg width="30" height="30" viewBox="0 0 30 30" fill="none" xmlns="http://www.w3.org/2000/svg">
<g clip-path="url(#clip0_2611_13230)">
<path d="M28.9995 6.2001C28.9887 6.17637 28.9764 6.15363 28.9627 6.13172C28.8909 6.00539 28.8023 5.88756 28.6976 5.78156L23.4733 0.496055C23.341 0.362168 23.1867 0.252832 23.019 0.170977C23.0163 0.169453 23.0135 0.168223 23.0107 0.166758C23.0069 0.164941 23.0031 0.163066 22.9993 0.161309C22.9838 0.153516 22.9679 0.146426 22.9516 0.140039C22.7427 0.0491016 22.5156 0 22.2856 0H13.0962C12.1754 0 11.4263 0.749121 11.4263 1.66992V6.17748H2.49011C1.56931 6.17748 0.82019 6.92654 0.82019 7.84734V28.3301C0.82019 29.2509 1.56931 30 2.49011 30H16.7839C17.7047 30 18.4539 29.2509 18.4539 28.3301V23.8225H27.5098C28.4306 23.8225 29.1797 23.0735 29.1797 22.1527V6.95543C29.1797 6.68871 29.1171 6.43143 28.9995 6.2001ZM27.1233 5.85592H23.822C23.5474 5.85592 23.324 5.6325 23.324 5.35787V2.01211L27.1233 5.85592ZM12.5982 8.18959L16.3975 12.0335H13.0962C12.8216 12.0335 12.5982 11.81 12.5982 11.5354V8.18959ZM17.282 28.3301C17.282 28.6047 17.0586 28.8281 16.784 28.8281H2.49011C2.21548 28.8281 1.99207 28.6047 1.99207 28.3301V7.84734C1.99207 7.57271 2.21548 7.34936 2.49011 7.34936H11.4263V11.5354C11.4263 12.4562 12.1754 13.2053 13.0962 13.2053H17.282V15.2477H15.4046C15.081 15.2477 14.8186 15.5101 14.8186 15.8336C14.8186 16.1572 15.081 16.4195 15.4046 16.4195H17.282V28.3301ZM27.5099 22.6506H18.4539V16.4196H22.4371L21.0888 17.7622C20.8595 17.9906 20.8587 18.3616 21.0871 18.5909C21.2016 18.7059 21.3519 18.7634 21.5023 18.7634C21.6518 18.7634 21.8014 18.7065 21.9157 18.5926L24.2594 16.2587C24.3695 16.149 24.4316 16.0001 24.4319 15.8447C24.4319 15.8428 24.4317 15.8409 24.4317 15.839C24.4317 15.8372 24.4319 15.8355 24.4319 15.8337C24.4319 15.6415 24.339 15.4715 24.1962 15.3647L21.9175 13.0765C21.6891 12.8472 21.3181 12.8464 21.0888 13.0748C20.8595 13.3032 20.8587 13.6741 21.0871 13.9035L22.4258 15.2478H18.4539V13.133C18.4539 12.6906 18.2827 12.2737 17.9717 11.9591L12.7474 6.67359C12.7004 6.62602 12.6504 6.58195 12.5982 6.5407V1.66992C12.5982 1.39529 12.8217 1.17188 13.0963 1.17188H22.1522V5.35787C22.1522 6.27867 22.9014 7.02779 23.8222 7.02779H28.008V22.1527C28.0079 22.4273 27.7844 22.6506 27.5099 22.6506Z" fill="#292929"/>
<path d="M4.64343 16.4062H12.3571C12.6807 16.4062 12.9431 16.1439 12.9431 15.8203C12.9431 15.4968 12.6807 15.2344 12.3571 15.2344H4.64343C4.31982 15.2344 4.0575 15.4968 4.0575 15.8203C4.0575 16.1439 4.31982 16.4062 4.64343 16.4062Z" fill="#292929"/>
<path d="M4.64343 19.5117H11.0725C11.3961 19.5117 11.6585 19.2493 11.6585 18.9258C11.6585 18.6022 11.3961 18.3398 11.0725 18.3398H4.64343C4.31982 18.3398 4.0575 18.6022 4.0575 18.9258C4.0575 19.2493 4.31982 19.5117 4.64343 19.5117Z" fill="#292929"/>
<path d="M13.9886 19.512C14.3123 19.512 14.5748 19.2496 14.5748 18.9258C14.5748 18.602 14.3123 18.3396 13.9886 18.3396C13.6648 18.3396 13.4023 18.602 13.4023 18.9258C13.4023 19.2496 13.6648 19.512 13.9886 19.512Z" fill="#292929"/>
<path d="M14.0022 21.4844H4.64343C4.31982 21.4844 4.0575 21.7468 4.0575 22.0703C4.0575 22.3939 4.31982 22.6563 4.64343 22.6563H14.0022C14.3258 22.6563 14.5881 22.3939 14.5881 22.0703C14.5881 21.7468 14.3258 21.4844 14.0022 21.4844Z" fill="#292929"/>
<path d="M14.0022 24.6094H4.64343C4.31982 24.6094 4.0575 24.8718 4.0575 25.1953C4.0575 25.5189 4.31982 25.7812 4.64343 25.7812H14.0022C14.3258 25.7812 14.5881 25.5189 14.5881 25.1953C14.5881 24.8718 14.3258 24.6094 14.0022 24.6094Z" fill="#292929"/>
</g>
<defs>
<clipPath id="clip0_2611_13230">
<rect width="30" height="30" fill="white"/>
</clipPath>
</defs>
</svg>
