<svg width="16" height="16" viewBox="0 0 16 16" fill="none" xmlns="http://www.w3.org/2000/svg">
<g clip-path="url(#clip0_1039_2511)">
<path d="M8.00002 16C12.4183 16 16 12.4183 16 8.00002C16 3.58173 12.4183 0 8.00002 0C3.58173 0 0 3.58173 0 8.00002C0 12.4183 3.58173 16 8.00002 16Z" fill="#FD625E"/>
<path d="M10.8258 10.8258C10.5936 11.0581 10.2064 11.0581 9.97419 10.8258L8 8.85162L6.02581 10.8258C5.79356 11.0581 5.40644 11.0581 5.17419 10.8258C4.94194 10.5936 4.94194 10.2064 5.17419 9.97419L7.14838 8L5.17419 6.02581C4.94194 5.79356 4.94194 5.40644 5.17419 5.17419C5.40644 4.94194 5.79356 4.94194 6.02581 5.17419L8 7.14838L9.97419 5.17419C10.2064 4.94194 10.5936 4.94194 10.8258 5.17419C11.0581 5.40644 11.0581 5.79356 10.8258 6.02581L8.85162 8L10.8258 9.97419C11.0581 10.2064 11.0581 10.5935 10.8258 10.8258Z" fill="white"/>
</g>
<defs>
<clipPath id="clip0_1039_2511">
<rect width="16" height="16" fill="white"/>
</clipPath>
</defs>
</svg>
