<svg width="18" height="18" viewBox="0 0 18 18" fill="none" xmlns="http://www.w3.org/2000/svg">
<path fill-rule="evenodd" clip-rule="evenodd" d="M16.5 12.4375H4C3.4825 12.4375 3.0625 12.8575 3.0625 13.375C3.0625 13.8925 3.4825 14.3125 4 14.3125H16.5C17.0175 14.3125 17.4375 13.8925 17.4375 13.375C17.4375 12.8575 17.0175 12.4375 16.5 12.4375Z" fill="#9EAAB3"/>
<path fill-rule="evenodd" clip-rule="evenodd" d="M1.5 5.5625H14C14.5175 5.5625 14.9375 5.1425 14.9375 4.625C14.9375 4.1075 14.5175 3.6875 14 3.6875H1.5C0.9825 3.6875 0.5625 4.1075 0.5625 4.625C0.5625 5.1425 0.9825 5.5625 1.5 5.5625Z" fill="#9EAAB3"/>
<path fill-rule="evenodd" clip-rule="evenodd" d="M12.7125 10.9127L15.1737 13.3752L12.7125 15.8377C12.3462 16.2027 12.3462 16.7977 12.7125 17.1627C13.0775 17.5289 13.6725 17.5289 14.0375 17.1627L17.1625 14.0377C17.5287 13.6714 17.5287 13.0789 17.1625 12.7127L14.0375 9.58768C13.6725 9.22143 13.0775 9.22143 12.7125 9.58768C12.3462 9.95268 12.3462 10.5477 12.7125 10.9127Z" fill="#9EAAB3"/>
<path fill-rule="evenodd" clip-rule="evenodd" d="M5.2875 7.08768L2.82625 4.62518L5.2875 2.16268C5.65375 1.79768 5.65375 1.20268 5.2875 0.837676C4.9225 0.471426 4.3275 0.471426 3.9625 0.837676L0.8375 3.96268C0.47125 4.32893 0.47125 4.92143 0.8375 5.28768L3.9625 8.41268C4.3275 8.77893 4.9225 8.77893 5.2875 8.41268C5.65375 8.04768 5.65375 7.45268 5.2875 7.08768Z" fill="#9EAAB3"/>
</svg>
