<svg width="8" height="5" viewBox="0 0 8 5" fill="none"
     xmlns="http://www.w3.org/2000/svg">
    <path d="M0.739091 0.25H7.26076C7.37613 0.250484 7.48876 0.285166 7.58442 0.349661C7.68007 0.414156 7.75446 0.505567 7.79816 0.612336C7.84187 0.719105 7.85294 0.836437 7.82996 0.949494C7.80699 1.06255 7.751 1.16626 7.66909 1.2475L4.41409 4.5025C4.35986 4.55718 4.29535 4.60057 4.22426 4.63019C4.15318 4.6598 4.07693 4.67505 3.99992 4.67505C3.92292 4.67505 3.84667 4.6598 3.77559 4.63019C3.7045 4.60057 3.63999 4.55718 3.58576 4.5025L0.330758 1.2475C0.248845 1.16626 0.192862 1.06255 0.169887 0.949494C0.146913 0.836437 0.157978 0.719105 0.201684 0.612336C0.245391 0.505567 0.319776 0.414156 0.415433 0.349661C0.51109 0.285166 0.623723 0.250484 0.739091 0.25Z"
          fill="#456B84"/>
</svg>