<svg width="20" height="18" viewBox="0 0 20 18" fill="none" xmlns="http://www.w3.org/2000/svg">
    <path d="M18.25 3.75001H10.3103L7.75 1.18969C7.61122 1.0498 7.44601 0.938889 7.26398 0.863407C7.08196 0.787925 6.88674 0.749378 6.68969 0.750008H1.75C1.35218 0.750008 0.970644 0.908043 0.68934 1.18935C0.408035 1.47065 0.25 1.85218 0.25 2.25001V15.8081C0.250496 16.1904 0.402567 16.5568 0.672863 16.8271C0.94316 17.0974 1.30962 17.2495 1.69188 17.25H18.3334C18.709 17.2495 19.069 17.1001 19.3346 16.8346C19.6001 16.569 19.7495 16.209 19.75 15.8334V5.25001C19.75 4.85218 19.592 4.47065 19.3107 4.18935C19.0294 3.90804 18.6478 3.75001 18.25 3.75001ZM6.68969 2.25001L8.18969 3.75001H1.75V2.25001H6.68969ZM18.25 15.75H1.75V5.25001H18.25V15.75ZM10 7.50001C10.1989 7.50001 10.3897 7.57903 10.5303 7.71968C10.671 7.86033 10.75 8.0511 10.75 8.25001V9.75001H12.25C12.4489 9.75001 12.6397 9.82903 12.7803 9.96968C12.921 10.1103 13 10.3011 13 10.5C13 10.6989 12.921 10.8897 12.7803 11.0303C12.6397 11.171 12.4489 11.25 12.25 11.25H10.75V12.75C10.75 12.9489 10.671 13.1397 10.5303 13.2803C10.3897 13.421 10.1989 13.5 10 13.5C9.80109 13.5 9.61032 13.421 9.46967 13.2803C9.32902 13.1397 9.25 12.9489 9.25 12.75V11.25H7.75C7.55109 11.25 7.36032 11.171 7.21967 11.0303C7.07902 10.8897 7 10.6989 7 10.5C7 10.3011 7.07902 10.1103 7.21967 9.96968C7.36032 9.82903 7.55109 9.75001 7.75 9.75001H9.25V8.25001C9.25 8.0511 9.32902 7.86033 9.46967 7.71968C9.61032 7.57903 9.80109 7.50001 10 7.50001Z" fill="white"/>
</svg>
