<svg width="22" height="22" viewBox="0 0 22 22" fill="none" xmlns="http://www.w3.org/2000/svg">
    <path d="M20.8113 10.9394L19.3113 9.43942C19.0569 9.18531 18.7197 9.03104 18.361 9.00471C18.0024 8.97839 17.6463 9.08175 17.3575 9.29598L12.7038 4.64223C12.9181 4.35356 13.0216 3.99749 12.9955 3.63889C12.9693 3.28028 12.8152 2.943 12.5613 2.68848L11.0613 1.18848C10.922 1.04916 10.7566 0.93864 10.5746 0.863237C10.3926 0.787833 10.1975 0.749023 10.0005 0.749023C9.80348 0.749023 9.6084 0.787833 9.42638 0.863237C9.24437 0.93864 9.079 1.04916 8.93971 1.18848L2.93971 7.18848C2.80038 7.32778 2.68987 7.49315 2.61446 7.67516C2.53906 7.85717 2.50025 8.05225 2.50025 8.24927C2.50025 8.44628 2.53906 8.64136 2.61446 8.82337C2.68987 9.00538 2.80038 9.17075 2.93971 9.31005L4.43971 10.81C4.69417 11.0638 5.03127 11.2177 5.38966 11.2439C5.74805 11.27 6.10392 11.1666 6.39252 10.9525L7.06471 11.6247L0.935334 17.7541C0.528122 18.1995 0.308385 18.7847 0.321875 19.3881C0.335366 19.9914 0.581045 20.5662 1.00776 20.9929C1.43447 21.4196 2.00933 21.6653 2.61264 21.6788C3.21596 21.6923 3.80122 21.4726 4.24658 21.0654L10.375 14.936L11.0472 15.6072C10.8329 15.8959 10.7293 16.252 10.7555 16.6106C10.7816 16.9692 10.9357 17.3065 11.1897 17.561L12.6897 19.061C12.829 19.2003 12.9944 19.3108 13.1764 19.3862C13.3584 19.4616 13.5535 19.5004 13.7505 19.5004C13.9475 19.5004 14.1426 19.4616 14.3246 19.3862C14.5066 19.3108 14.672 19.2003 14.8113 19.061L20.8113 13.061C20.9506 12.9217 21.0611 12.7563 21.1365 12.5743C21.2119 12.3923 21.2507 12.1972 21.2507 12.0002C21.2507 11.8032 21.2119 11.6081 21.1365 11.4261C21.0611 11.2441 20.9506 11.0787 20.8113 10.9394ZM5.50002 9.74973L4.00002 8.24973L10 2.24973L11.5 3.74973L5.50002 9.74973ZM3.18627 20.0041C3.02818 20.1613 2.81433 20.2495 2.59143 20.2495C2.36852 20.2495 2.15467 20.1613 1.99658 20.0041C1.83972 19.8461 1.75169 19.6324 1.75169 19.4097C1.75169 19.1871 1.83972 18.9734 1.99658 18.8154L8.12502 12.686L9.31471 13.8747L3.18627 20.0041ZM7.46877 9.90536L11.6556 5.71848L16.2813 10.3441L12.0953 14.531L7.46877 9.90536ZM13.75 17.9997L12.25 16.4997L12.625 16.1247L17.875 10.8747L18.25 10.4997L19.75 11.9997L13.75 17.9997Z" fill="black" fill-opacity="0.8"/>
</svg>
