<svg width="11" height="15" viewBox="0 0 11 15" fill="none" xmlns="http://www.w3.org/2000/svg">
    <path d="M1.34144 14.232L1.16144 14.052L1.05344 14.16C0.861438 13.968 0.765438 13.812 0.765438 13.692C0.765438 13.596 0.717438 13.548 0.621438 13.548L0.441438 13.296L0.693438 12.864V12.81L0.711437 12.738C0.711437 12.654 0.693438 12.612 0.657438 12.612C0.573438 12.612 0.501438 12.54 0.441438 12.396C0.513438 12.252 0.627438 12.048 0.783438 11.784C0.951438 11.52 1.13144 11.232 1.32344 10.92C1.51544 10.608 1.70144 10.314 1.88144 10.038C2.06144 9.762 2.20544 9.552 2.31344 9.408L2.97944 8.508C3.48344 7.812 4.02944 7.128 4.61744 6.456L4.32944 5.808L4.11344 5.268C3.95744 4.872 3.81344 4.512 3.68144 4.188C3.54944 3.864 3.44144 3.576 3.35744 3.324C3.18944 2.796 3.10544 2.502 3.10544 2.442C3.12944 2.31 3.15344 2.196 3.17744 2.1C3.21344 2.004 3.23744 1.932 3.24944 1.884H3.50144C3.53744 1.788 3.56744 1.74 3.59144 1.74C3.62744 1.752 3.67544 1.788 3.73544 1.848C3.80744 1.896 3.84944 1.92 3.86144 1.92L4.07744 1.704L4.22144 1.884L4.29344 1.452C4.43744 1.452 4.52144 1.476 4.54544 1.524C4.55744 1.572 4.60544 1.602 4.68944 1.614L4.76144 1.632H4.79744L5.55344 3.18L6.23744 4.512C6.56144 4.104 6.85544 3.744 7.11944 3.432C7.38344 3.108 7.62344 2.832 7.83944 2.604C8.06744 2.364 8.28944 2.118 8.50544 1.866C8.73344 1.602 8.97344 1.32 9.22544 1.02L9.33344 1.236L9.42344 1.164L9.56744 1.092C9.59144 1.104 9.60344 1.146 9.60344 1.218C9.60344 1.29 9.63344 1.344 9.69344 1.38L9.76544 1.416C9.83744 1.416 9.95144 1.344 10.1074 1.2C10.2754 1.056 10.3654 0.983999 10.3774 0.983999C10.4014 0.983999 10.4134 0.995999 10.4134 1.02C10.4254 1.056 10.4314 1.092 10.4314 1.128C10.4314 1.164 10.4314 1.2 10.4314 1.236C10.4314 1.32 10.4554 1.392 10.5034 1.452C10.5394 1.5 10.5574 1.566 10.5574 1.65C10.5574 1.854 10.4914 2.04 10.3594 2.208C10.2154 2.388 9.36944 3.504 7.82144 5.556L7.17344 6.42L7.64144 7.392C7.98944 8.1 8.25344 8.664 8.43344 9.084C8.62544 9.492 8.74544 9.756 8.79344 9.876L8.91944 10.2C9.09944 10.668 9.18944 10.932 9.18944 10.992C9.18944 11.04 9.16544 11.082 9.11744 11.118C9.06944 11.142 9.01544 11.154 8.95544 11.154L8.90144 11.136H8.86544C8.81744 11.136 8.75744 11.184 8.68544 11.28L8.61344 11.676L8.36144 11.604L8.34344 11.658L8.28944 11.928C8.09744 11.916 7.94744 11.88 7.83944 11.82C7.74344 11.76 7.57544 11.586 7.33544 11.298C7.21544 11.154 7.06544 10.944 6.88544 10.668C6.71744 10.38 6.51344 10.032 6.27344 9.624L5.62544 8.508L4.72544 9.804C4.28144 10.452 3.86744 11.082 3.48344 11.694C3.09944 12.306 2.76944 12.864 2.49344 13.368C2.21744 13.884 1.92944 14.16 1.62944 14.196L1.41344 14.088L1.34144 14.232Z" fill="white"/>
</svg>
