<svg width="23" height="19" viewBox="0 0 23 19" fill="none" xmlns="http://www.w3.org/2000/svg">
    <path d="M21.25 3H19V2.25C19 1.85218 18.842 1.47064 18.5607 1.18934C18.2794 0.908035 17.8978 0.75 17.5 0.75H5.5C5.10218 0.75 4.72064 0.908035 4.43934 1.18934C4.15804 1.47064 4 1.85218 4 2.25V3H1.75C1.35218 3 0.970644 3.15804 0.68934 3.43934C0.408035 3.72064 0.25 4.10218 0.25 4.5V6C0.25 6.99456 0.645088 7.94839 1.34835 8.65165C1.69657 8.99987 2.10997 9.27609 2.56494 9.46455C3.01991 9.653 3.50754 9.75 4 9.75H4.34219C4.78398 11.1501 5.62634 12.39 6.76516 13.3166C7.90398 14.2431 9.28933 14.8157 10.75 14.9634V17.25H8.5C8.30109 17.25 8.11032 17.329 7.96967 17.4697C7.82902 17.6103 7.75 17.8011 7.75 18C7.75 18.1989 7.82902 18.3897 7.96967 18.5303C8.11032 18.671 8.30109 18.75 8.5 18.75H14.5C14.6989 18.75 14.8897 18.671 15.0303 18.5303C15.171 18.3897 15.25 18.1989 15.25 18C15.25 17.8011 15.171 17.6103 15.0303 17.4697C14.8897 17.329 14.6989 17.25 14.5 17.25H12.25V14.9606C15.2444 14.6578 17.7288 12.5569 18.6325 9.75H19C19.9946 9.75 20.9484 9.35491 21.6516 8.65165C22.3549 7.94839 22.75 6.99456 22.75 6V4.5C22.75 4.10218 22.592 3.72064 22.3107 3.43934C22.0294 3.15804 21.6478 3 21.25 3ZM4 8.25C3.40326 8.25 2.83097 8.01295 2.40901 7.59099C1.98705 7.16903 1.75 6.59674 1.75 6V4.5H4V7.5C4 7.75 4.01219 8 4.03656 8.25H4ZM17.5 7.41562C17.5 10.7456 14.8291 13.4756 11.5459 13.5H11.5C9.9087 13.5 8.38258 12.8679 7.25736 11.7426C6.13214 10.6174 5.5 9.0913 5.5 7.5V2.25H17.5V7.41562ZM21.25 6C21.25 6.59674 21.0129 7.16903 20.591 7.59099C20.169 8.01295 19.5967 8.25 19 8.25H18.9531C18.9839 7.97293 18.9995 7.6944 19 7.41562V4.5H21.25V6Z" fill="white"/>
</svg>
