<svg width="22" height="14" viewBox="0 0 22 14" fill="none" xmlns="http://www.w3.org/2000/svg">
    <path d="M20 0H2C1.60218 0 1.22064 0.158036 0.93934 0.43934C0.658035 0.720645 0.5 1.10218 0.5 1.5V8.25C0.5 8.64782 0.658035 9.02936 0.93934 9.31066C1.22064 9.59196 1.60218 9.75 2 9.75H4.25V12.75C4.25 12.9489 4.32902 13.1397 4.46967 13.2803C4.61032 13.421 4.80109 13.5 5 13.5C5.19891 13.5 5.38968 13.421 5.53033 13.2803C5.67098 13.1397 5.75 12.9489 5.75 12.75V9.75H16.25V12.75C16.25 12.9489 16.329 13.1397 16.4697 13.2803C16.6103 13.421 16.8011 13.5 17 13.5C17.1989 13.5 17.3897 13.421 17.5303 13.2803C17.671 13.1397 17.75 12.9489 17.75 12.75V9.75H20C20.3978 9.75 20.7794 9.59196 21.0607 9.31066C21.342 9.02936 21.5 8.64782 21.5 8.25V1.5C21.5 1.10218 21.342 0.720645 21.0607 0.43934C20.7794 0.158036 20.3978 0 20 0ZM20 6.06469L15.4353 1.5H20V6.06469ZM6.56469 1.5L13.3147 8.25H8.68531L2 1.56469V1.5H6.56469ZM2 3.68531L6.56469 8.25H2V3.68531ZM20 8.25H15.4353L8.68531 1.5H13.3147L20 8.18625V8.25Z" fill="black" fill-opacity="0.8"/>
</svg>
