<svg width="15" height="18" viewBox="0 0 15 18" fill="none" xmlns="http://www.w3.org/2000/svg">
    <path d="M14.1922 5.43281L9.81719 1.05781C9.7591 0.999791 9.69015 0.953782 9.61428 0.922415C9.53841 0.891047 9.4571 0.874936 9.375 0.875H1.875C1.54348 0.875 1.22554 1.0067 0.991116 1.24112C0.756696 1.47554 0.625 1.79348 0.625 2.125V15.875C0.625 16.2065 0.756696 16.5245 0.991116 16.7589C1.22554 16.9933 1.54348 17.125 1.875 17.125H13.125C13.4565 17.125 13.7745 16.9933 14.0089 16.7589C14.2433 16.5245 14.375 16.2065 14.375 15.875V5.875C14.3751 5.7929 14.359 5.71159 14.3276 5.63572C14.2962 5.55985 14.2502 5.4909 14.1922 5.43281ZM10 12.75H5C4.83424 12.75 4.67527 12.6842 4.55806 12.5669C4.44085 12.4497 4.375 12.2908 4.375 12.125C4.375 11.9592 4.44085 11.8003 4.55806 11.6831C4.67527 11.5658 4.83424 11.5 5 11.5H10C10.1658 11.5 10.3247 11.5658 10.4419 11.6831C10.5592 11.8003 10.625 11.9592 10.625 12.125C10.625 12.2908 10.5592 12.4497 10.4419 12.5669C10.3247 12.6842 10.1658 12.75 10 12.75ZM10 10.25H5C4.83424 10.25 4.67527 10.1842 4.55806 10.0669C4.44085 9.94973 4.375 9.79076 4.375 9.625C4.375 9.45924 4.44085 9.30027 4.55806 9.18306C4.67527 9.06585 4.83424 9 5 9H10C10.1658 9 10.3247 9.06585 10.4419 9.18306C10.5592 9.30027 10.625 9.45924 10.625 9.625C10.625 9.79076 10.5592 9.94973 10.4419 10.0669C10.3247 10.1842 10.1658 10.25 10 10.25ZM9.375 5.875V2.4375L12.8125 5.875H9.375Z" fill="#3B82F6"/>
</svg>
