<svg width="31" height="38" viewBox="0 0 31 38" fill="none" xmlns="http://www.w3.org/2000/svg">
    <path d="M16.9062 14.8751H14.0938V5.61322L9.46367 10.2451C9.1998 10.5089 8.84192 10.6572 8.46875 10.6572C8.09558 10.6572 7.7377 10.5089 7.47383 10.2451C7.20996 9.98118 7.06172 9.6233 7.06172 9.25013C7.06172 8.87696 7.20996 8.51908 7.47383 8.25521L14.5051 1.22396C14.6357 1.09321 14.7908 0.989486 14.9615 0.918717C15.1322 0.847949 15.3152 0.811523 15.5 0.811523C15.6848 0.811523 15.8678 0.847949 16.0385 0.918717C16.2092 0.989486 16.3643 1.09321 16.4949 1.22396L23.5262 8.25521C23.6568 8.38586 23.7605 8.54097 23.8312 8.71168C23.9019 8.88239 23.9383 9.06536 23.9383 9.25013C23.9383 9.4349 23.9019 9.61787 23.8312 9.78858C23.7605 9.95929 23.6568 10.1144 23.5262 10.2451C23.3955 10.3757 23.2404 10.4793 23.0697 10.5501C22.899 10.6208 22.716 10.6572 22.5312 10.6572C22.3465 10.6572 22.1635 10.6208 21.9928 10.5501C21.8221 10.4793 21.667 10.3757 21.5363 10.2451L16.9062 5.61322V14.8751ZM28.1562 14.8751H16.9062V21.9064C16.9062 22.2793 16.7581 22.637 16.4944 22.9007C16.2306 23.1645 15.873 23.3126 15.5 23.3126C15.127 23.3126 14.7694 23.1645 14.5056 22.9007C14.2419 22.637 14.0938 22.2793 14.0938 21.9064V14.8751H2.84375C2.09783 14.8751 1.38246 15.1714 0.855012 15.6989C0.327566 16.2263 0.03125 16.9417 0.03125 17.6876V34.5626C0.03125 35.3086 0.327566 36.0239 0.855012 36.5514C1.38246 37.0788 2.09783 37.3751 2.84375 37.3751H28.1562C28.9022 37.3751 29.6175 37.0788 30.145 36.5514C30.6724 36.0239 30.9688 35.3086 30.9688 34.5626V17.6876C30.9688 16.9417 30.6724 16.2263 30.145 15.6989C29.6175 15.1714 28.9022 14.8751 28.1562 14.8751Z" fill="#166534"/>
</svg>
