<svg width="24" height="18" viewBox="0 0 24 18" fill="none" xmlns="http://www.w3.org/2000/svg">
    <path d="M22.95 10.1002C22.8712 10.1593 22.7816 10.2023 22.6862 10.2267C22.5908 10.2511 22.4915 10.2566 22.394 10.2426C22.2965 10.2287 22.2027 10.1957 22.1179 10.1455C22.0332 10.0953 21.9591 10.029 21.9 9.95017C21.448 9.34254 20.8596 8.84953 20.1822 8.51084C19.5048 8.17215 18.7574 7.99723 18 8.00017C17.8526 8.00015 17.7083 7.95666 17.5855 7.87512C17.4626 7.79358 17.3664 7.67761 17.3091 7.54173C17.2702 7.44946 17.2501 7.35032 17.2501 7.25017C17.2501 7.15002 17.2702 7.05088 17.3091 6.9586C17.3664 6.82272 17.4626 6.70676 17.5855 6.62522C17.7083 6.54368 17.8526 6.50018 18 6.50017C18.4209 6.50013 18.8332 6.38208 19.1903 6.15942C19.5474 5.93677 19.8349 5.61844 20.0201 5.24058C20.2054 4.86273 20.2809 4.4405 20.2382 4.02185C20.1955 3.6032 20.0363 3.20493 19.7786 2.87225C19.5209 2.53958 19.175 2.28584 18.7803 2.13987C18.3856 1.9939 17.9579 1.96154 17.5458 2.04646C17.1336 2.13139 16.7535 2.3302 16.4487 2.62031C16.1439 2.91043 15.9265 3.28021 15.8213 3.68767C15.7967 3.78308 15.7535 3.87271 15.6942 3.95144C15.635 4.03017 15.5608 4.09645 15.4759 4.14651C15.391 4.19656 15.2971 4.22941 15.1995 4.24318C15.102 4.25694 15.0026 4.25135 14.9072 4.22673C14.8118 4.20211 14.7222 4.15893 14.6435 4.09967C14.5647 4.04041 14.4984 3.96622 14.4484 3.88134C14.3983 3.79646 14.3655 3.70256 14.3517 3.60498C14.338 3.50741 14.3435 3.40808 14.3682 3.31267C14.5142 2.74765 14.7901 2.22451 15.1738 1.78487C15.5576 1.34523 16.0387 1.00124 16.5788 0.780246C17.119 0.559256 17.7032 0.467375 18.2851 0.511915C18.867 0.556454 19.4304 0.736184 19.9306 1.0368C20.4308 1.33742 20.8539 1.75063 21.1663 2.24356C21.4787 2.73648 21.6718 3.29552 21.7301 3.87618C21.7884 4.45684 21.7104 5.0431 21.5023 5.58831C21.2942 6.13352 20.9617 6.62263 20.5313 7.01673C21.5511 7.45829 22.4377 8.15899 23.1028 9.04923C23.1619 9.12822 23.2049 9.2181 23.2292 9.31371C23.2535 9.40932 23.2587 9.50878 23.2445 9.6064C23.2303 9.70403 23.197 9.79789 23.1465 9.88262C23.0959 9.96735 23.0292 10.0413 22.95 10.1002ZM17.8988 15.8752C17.9531 15.9605 17.9895 16.056 18.0059 16.1558C18.0223 16.2556 18.0184 16.3577 17.9943 16.456C17.9703 16.5542 17.9266 16.6466 17.8659 16.7275C17.8052 16.8084 17.7288 16.8762 17.6412 16.9268C17.5536 16.9775 17.4567 17.0099 17.3563 17.022C17.2559 17.0342 17.154 17.026 17.0569 16.9978C16.9597 16.9696 16.8693 16.9221 16.791 16.8581C16.7127 16.794 16.6482 16.7148 16.6013 16.6252C16.1288 15.8252 15.456 15.1622 14.6491 14.7016C13.8422 14.241 12.9291 13.9988 12 13.9988C11.0709 13.9988 10.1579 14.241 9.35102 14.7016C8.54412 15.1622 7.87125 15.8252 7.39879 16.6252C7.3519 16.7148 7.28737 16.794 7.20908 16.8581C7.13078 16.9221 7.04034 16.9696 6.94319 16.9978C6.84605 17.026 6.7442 17.0342 6.64379 17.022C6.54338 17.0099 6.44647 16.9775 6.35889 16.9268C6.27132 16.8762 6.19489 16.8084 6.1342 16.7275C6.07352 16.6466 6.02983 16.5542 6.00576 16.456C5.9817 16.3577 5.97775 16.2556 5.99417 16.1558C6.01059 16.056 6.04702 15.9605 6.10129 15.8752C6.82841 14.6258 7.9371 13.6427 9.26441 13.0702C8.51753 12.4983 7.96863 11.7068 7.69485 10.8069C7.42108 9.90695 7.4362 8.94385 7.73808 8.05295C8.03997 7.16206 8.61346 6.38816 9.37792 5.84005C10.1424 5.29194 11.0594 4.99716 12 4.99716C12.9407 4.99716 13.8577 5.29194 14.6222 5.84005C15.3866 6.38816 15.9601 7.16206 16.262 8.05295C16.5639 8.94385 16.579 9.90695 16.3052 10.8069C16.0315 11.7068 15.4825 12.4983 14.7357 13.0702C16.063 13.6427 17.1717 14.6258 17.8988 15.8752ZM12 12.5002C12.5934 12.5002 13.1734 12.3242 13.6667 11.9946C14.1601 11.6649 14.5446 11.1964 14.7717 10.6482C14.9987 10.1 15.0582 9.49684 14.9424 8.9149C14.8266 8.33295 14.5409 7.7984 14.1214 7.37885C13.7018 6.95929 13.1673 6.67357 12.5853 6.55781C12.0034 6.44206 11.4002 6.50147 10.852 6.72853C10.3038 6.95559 9.83528 7.34011 9.50563 7.83346C9.17599 8.3268 9.00004 8.90682 9.00004 9.50017C9.00004 10.2958 9.31611 11.0589 9.87872 11.6215C10.4413 12.1841 11.2044 12.5002 12 12.5002ZM6.75004 7.25017C6.75004 7.05125 6.67102 6.86049 6.53037 6.71984C6.38972 6.57919 6.19895 6.50017 6.00004 6.50017C5.57922 6.50013 5.16685 6.38208 4.80976 6.15942C4.45267 5.93677 4.16518 5.61844 3.97994 5.24058C3.79471 4.86273 3.71915 4.4405 3.76185 4.02185C3.80455 3.6032 3.9638 3.20493 4.22152 2.87225C4.47923 2.53958 4.82507 2.28584 5.21976 2.13987C5.61445 1.9939 6.04216 1.96154 6.45432 2.04646C6.86648 2.13139 7.24656 2.3302 7.55139 2.62031C7.85622 2.91043 8.07359 3.28021 8.17879 3.68767C8.22852 3.88036 8.35276 4.04541 8.52418 4.14651C8.6956 4.2476 8.90016 4.27646 9.09285 4.22673C9.28555 4.177 9.4506 4.05276 9.55169 3.88134C9.65279 3.70992 9.68164 3.50536 9.63192 3.31267C9.48589 2.74765 9.21002 2.22451 8.82624 1.78487C8.44246 1.34523 7.96137 1.00124 7.42125 0.780246C6.88112 0.559256 6.29688 0.467375 5.715 0.511915C5.13312 0.556454 4.56967 0.736184 4.06947 1.0368C3.56928 1.33742 3.14614 1.75063 2.83375 2.24356C2.52135 2.73648 2.32831 3.29552 2.26998 3.87618C2.21165 4.45684 2.28965 5.0431 2.49777 5.58831C2.70589 6.13352 3.03838 6.62263 3.46879 7.01673C2.44999 7.45871 1.56446 8.15938 0.90004 9.04923C0.780569 9.20836 0.729204 9.40843 0.757247 9.60543C0.785289 9.80243 0.890442 9.98023 1.04957 10.0997C1.2087 10.2192 1.40877 10.2705 1.60577 10.2425C1.80278 10.2144 1.98057 10.1093 2.10004 9.95017C2.55209 9.34254 3.14049 8.84953 3.81788 8.51084C4.49526 8.17215 5.24271 7.99723 6.00004 8.00017C6.19895 8.00017 6.38972 7.92115 6.53037 7.7805C6.67102 7.63984 6.75004 7.44908 6.75004 7.25017Z" fill="black" fill-opacity="0.8"/>
</svg>
