<svg width="18" height="21" viewBox="0 0 18 21" fill="none" xmlns="http://www.w3.org/2000/svg">
    <path d="M17.25 10.75C17.0511 10.75 16.8603 10.829 16.7197 10.9696C16.579 11.1103 16.5 11.301 16.5 11.5C16.5 11.9924 16.403 12.48 16.2145 12.935C16.0261 13.39 15.7499 13.8034 15.4017 14.1516C15.0534 14.4998 14.64 14.776 14.1851 14.9645C13.7301 15.153 13.2425 15.25 12.75 15.25C11.6422 15.2493 10.5734 15.6591 9.75 16.4003V9.99995H12.75C12.9489 9.99995 13.1397 9.92093 13.2803 9.78028C13.421 9.63963 13.5 9.44886 13.5 9.24995C13.5 9.05104 13.421 8.86027 13.2803 8.71962C13.1397 8.57897 12.9489 8.49995 12.75 8.49995H9.75V6.1562C10.457 5.97366 11.0731 5.53953 11.483 4.9352C11.8928 4.33086 12.0681 3.59781 11.9761 2.87345C11.8841 2.14909 11.5311 1.48315 10.9832 1.00046C10.4353 0.517769 9.73018 0.251465 9 0.251465C8.26982 0.251465 7.5647 0.517769 7.01683 1.00046C6.46895 1.48315 6.11592 2.14909 6.02391 2.87345C5.93191 3.59781 6.10724 4.33086 6.51705 4.9352C6.92686 5.53953 7.54301 5.97366 8.25 6.1562V8.49995H5.25C5.05109 8.49995 4.86032 8.57897 4.71967 8.71962C4.57902 8.86027 4.5 9.05104 4.5 9.24995C4.5 9.44886 4.57902 9.63963 4.71967 9.78028C4.86032 9.92093 5.05109 9.99995 5.25 9.99995H8.25V16.4003C7.42661 15.6591 6.35782 15.2493 5.25 15.25C4.25544 15.25 3.30161 14.8549 2.59835 14.1516C1.89509 13.4483 1.5 12.4945 1.5 11.5C1.5 11.301 1.42098 11.1103 1.28033 10.9696C1.13968 10.829 0.948912 10.75 0.75 10.75C0.551088 10.75 0.360322 10.829 0.21967 10.9696C0.0790178 11.1103 0 11.301 0 11.5C0.00148896 12.8919 0.555091 14.2264 1.53933 15.2106C2.52358 16.1949 3.85807 16.7485 5.25 16.75C6.04565 16.75 6.80871 17.066 7.37132 17.6286C7.93393 18.1912 8.25 18.9543 8.25 19.75C8.25 19.9489 8.32902 20.1396 8.46967 20.2803C8.61032 20.4209 8.80109 20.5 9 20.5C9.19891 20.5 9.38968 20.4209 9.53033 20.2803C9.67098 20.1396 9.75 19.9489 9.75 19.75C9.75 18.9543 10.0661 18.1912 10.6287 17.6286C11.1913 17.066 11.9544 16.75 12.75 16.75C14.1419 16.7485 15.4764 16.1949 16.4607 15.2106C17.4449 14.2264 17.9985 12.8919 18 11.5C18 11.301 17.921 11.1103 17.7803 10.9696C17.6397 10.829 17.4489 10.75 17.25 10.75ZM7.5 3.24995C7.5 2.95328 7.58797 2.66327 7.7528 2.4166C7.91762 2.16992 8.15189 1.97766 8.42597 1.86413C8.70006 1.7506 9.00166 1.7209 9.29263 1.77877C9.58361 1.83665 9.85088 1.97951 10.0607 2.18929C10.2704 2.39907 10.4133 2.66635 10.4712 2.95732C10.5291 3.24829 10.4994 3.54989 10.3858 3.82398C10.2723 4.09807 10.08 4.33233 9.83336 4.49716C9.58668 4.66198 9.29667 4.74995 9 4.74995C8.60218 4.74995 8.22064 4.59192 7.93934 4.31061C7.65804 4.02931 7.5 3.64778 7.5 3.24995Z" fill="black" fill-opacity="0.8"/>
</svg>
