<svg width="21" height="19" viewBox="0 0 21 19" fill="none" xmlns="http://www.w3.org/2000/svg">
    <path d="M5.71162 3.76281C5.66186 3.61344 5.56636 3.48352 5.43865 3.39145C5.31094 3.29938 5.15749 3.24984 5.00006 3.24984C4.84262 3.24984 4.68917 3.29938 4.56146 3.39145C4.43375 3.48352 4.33825 3.61344 4.28849 3.76281L0.538493 15.0128C0.500908 15.1256 0.490655 15.2456 0.508578 15.3631C0.526501 15.4806 0.572087 15.5921 0.64158 15.6886C0.711072 15.785 0.802481 15.8635 0.908273 15.9176C1.01406 15.9718 1.13121 16 1.25006 16H8.75006C8.8689 16 8.98605 15.9718 9.09184 15.9176C9.19763 15.8635 9.28904 15.785 9.35853 15.6886C9.42802 15.5921 9.47361 15.4806 9.49153 15.3631C9.50946 15.2456 9.4992 15.1256 9.46162 15.0128L5.71162 3.76281ZM2.29068 14.5L5.00006 6.37188L7.70943 14.5H2.29068ZM18.5001 5.125C18.5001 4.16082 18.2141 3.21829 17.6785 2.4166C17.1428 1.61491 16.3814 0.990067 15.4906 0.621089C14.5998 0.252112 13.6196 0.155571 12.674 0.343674C11.7283 0.531777 10.8597 0.996076 10.1779 1.67786C9.49613 2.35964 9.03183 3.22828 8.84373 4.17394C8.65562 5.11959 8.75217 6.09979 9.12114 6.99058C9.49012 7.88137 10.115 8.64275 10.9167 9.17842C11.7183 9.71409 12.6609 10 13.6251 10C14.9175 9.99851 16.1566 9.48442 17.0706 8.5705C17.9845 7.65659 18.4986 6.41748 18.5001 5.125ZM10.2501 5.125C10.2501 4.45749 10.448 3.80497 10.8188 3.24995C11.1897 2.69494 11.7168 2.26235 12.3335 2.00691C12.9502 1.75146 13.6288 1.68463 14.2835 1.81485C14.9382 1.94508 15.5395 2.26651 16.0115 2.73852C16.4835 3.21052 16.805 3.81189 16.9352 4.46657C17.0654 5.12126 16.9986 5.79986 16.7431 6.41656C16.4877 7.03326 16.0551 7.56036 15.5001 7.93121C14.9451 8.30206 14.2926 8.5 13.6251 8.5C12.7299 8.5 11.8715 8.14442 11.2386 7.51149C10.6056 6.87855 10.2501 6.02011 10.2501 5.125ZM20.0001 11.5H11.7501C11.5511 11.5 11.3604 11.579 11.2197 11.7197C11.0791 11.8603 11.0001 12.0511 11.0001 12.25V17.5C11.0001 17.6989 11.0791 17.8897 11.2197 18.0303C11.3604 18.171 11.5511 18.25 11.7501 18.25H20.0001C20.199 18.25 20.3897 18.171 20.5304 18.0303C20.671 17.8897 20.7501 17.6989 20.7501 17.5V12.25C20.7501 12.0511 20.671 11.8603 20.5304 11.7197C20.3897 11.579 20.199 11.5 20.0001 11.5ZM19.2501 16.75H12.5001V13H19.2501V16.75Z" fill="black" fill-opacity="0.8"/>
</svg>
