<svg width="22" height="18" viewBox="0 0 22 18" fill="none" xmlns="http://www.w3.org/2000/svg">
    <path d="M21.4466 9.46875L18.4466 1.96875C18.3805 1.80355 18.2579 1.66721 18.1006 1.58409C17.9433 1.50097 17.7615 1.47648 17.5878 1.515L11.75 2.8125V0.75C11.75 0.551088 11.671 0.360322 11.5303 0.21967C11.3897 0.0790178 11.1989 0 11 0C10.8011 0 10.6103 0.0790178 10.4697 0.21967C10.329 0.360322 10.25 0.551088 10.25 0.75V3.14813L4.08689 4.51781C3.96806 4.54406 3.85741 4.59883 3.76447 4.67739C3.67153 4.75595 3.59911 4.85595 3.55345 4.96875V4.97437L0.553452 12.4688C0.517564 12.5581 0.499414 12.6537 0.500014 12.75C0.500014 14.9353 2.80064 15.75 4.25001 15.75C5.69939 15.75 8.00001 14.9353 8.00001 12.75C8.00062 12.6537 7.98247 12.5581 7.94658 12.4688L5.27376 5.79094L10.25 4.6875V16.5H8.75001C8.5511 16.5 8.36034 16.579 8.21968 16.7197C8.07903 16.8603 8.00001 17.0511 8.00001 17.25C8.00001 17.4489 8.07903 17.6397 8.21968 17.7803C8.36034 17.921 8.5511 18 8.75001 18H13.25C13.4489 18 13.6397 17.921 13.7803 17.7803C13.921 17.6397 14 17.4489 14 17.25C14 17.0511 13.921 16.8603 13.7803 16.7197C13.6397 16.579 13.4489 16.5 13.25 16.5H11.75V4.35187L16.5313 3.29062L14.0535 9.46875C14.0176 9.55815 13.9994 9.65367 14 9.75C14 11.9353 16.3006 12.75 17.75 12.75C19.1994 12.75 21.5 11.9353 21.5 9.75C21.5006 9.65367 21.4825 9.55815 21.4466 9.46875ZM4.25001 14.25C3.54408 14.25 2.11626 13.9116 2.00658 12.8775L4.25001 7.26937L6.49345 12.8775C6.38376 13.9116 4.95595 14.25 4.25001 14.25ZM17.75 11.25C17.0441 11.25 15.6163 10.9116 15.5066 9.8775L17.75 4.26937L19.9935 9.8775C19.8838 10.9116 18.456 11.25 17.75 11.25Z" fill="black" fill-opacity="0.8"/>
</svg>
