<svg width="14" height="14" viewBox="0 0 14 14" fill="none" xmlns="http://www.w3.org/2000/svg">
    <path d="M12.825 6.25505L10.3586 8.40755L11.0974 11.6122C11.1365 11.7798 11.1254 11.9551 11.0654 12.1163C11.0053 12.2776 10.8991 12.4175 10.76 12.5187C10.6209 12.6199 10.455 12.6778 10.2832 12.6853C10.1113 12.6927 9.94103 12.6493 9.79368 12.5605L6.99861 10.8652L4.20954 12.5605C4.0622 12.6493 3.89195 12.6927 3.72008 12.6853C3.5482 12.6778 3.38234 12.6199 3.24321 12.5187C3.10409 12.4175 2.99788 12.2776 2.93787 12.1163C2.87785 11.9551 2.8667 11.7798 2.90579 11.6122L3.64353 8.41083L1.17657 6.25505C1.0461 6.14251 0.951745 5.99396 0.905355 5.82802C0.858966 5.66208 0.862603 5.48613 0.915809 5.32225C0.969016 5.15836 1.06942 5.01384 1.20444 4.90679C1.33946 4.79974 1.50308 4.73494 1.67478 4.72052L4.9265 4.43888L6.19579 1.41138C6.26208 1.25252 6.37388 1.11682 6.51713 1.02138C6.66038 0.925929 6.82866 0.875 7.00079 0.875C7.17293 0.875 7.34121 0.925929 7.48446 1.02138C7.6277 1.11682 7.73951 1.25252 7.80579 1.41138L9.07892 4.43888L12.3295 4.72052C12.5012 4.73494 12.6649 4.79974 12.7999 4.90679C12.9349 5.01384 13.0353 5.15836 13.0885 5.32225C13.1417 5.48613 13.1454 5.66208 13.099 5.82802C13.0526 5.99396 12.9582 6.14251 12.8277 6.25505H12.825Z" fill="#FDE68A"/>
</svg>
