<svg width="20" height="24" viewBox="0 0 20 24" fill="none" xmlns="http://www.w3.org/2000/svg">
    <g clip-path="url(#clip0_144_9923)">
        <path d="M3 7C3 5.93913 3.42143 4.92172 4.17157 4.17157C4.92172 3.42143 5.93913 3 7 3C8.06087 3 9.07828 3.42143 9.82843 4.17157C10.5786 4.92172 11 5.93913 11 7C11 8.06087 10.5786 9.07828 9.82843 9.82843C9.07828 10.5786 8.06087 11 7 11C5.93913 11 4.92172 10.5786 4.17157 9.82843C3.42143 9.07828 3 8.06087 3 7ZM0 18.0719C0 14.9937 2.49375 12.5 5.57188 12.5H8.42813C11.5063 12.5 14 14.9937 14 18.0719C14 18.5844 13.5844 19 13.0719 19H0.928125C0.415625 19 0 18.5844 0 18.0719ZM19.0406 19H14.7312C14.9 18.7063 15 18.3656 15 18V17.75C15 15.8531 14.1531 14.15 12.8188 13.0063C12.8938 13.0031 12.9656 13 13.0406 13H14.9594C17.7437 13 20 15.2562 20 18.0406C20 18.5719 19.5688 19 19.0406 19ZM13.5 11C12.5312 11 11.6562 10.6063 11.0219 9.97188C11.6375 9.14062 12 8.1125 12 7C12 6.1625 11.7938 5.37188 11.4281 4.67813C12.0094 4.25312 12.725 4 13.5 4C15.4344 4 17 5.56562 17 7.5C17 9.43437 15.4344 11 13.5 11Z" fill="#8B5CF6"/>
    </g>
    <defs>
        <clipPath id="clip0_144_9923">
            <rect width="20" height="16" fill="white" transform="translate(0 3)"/>
        </clipPath>
    </defs>
</svg>
