<svg width="50" height="50" viewBox="0 0 50 50" fill="none" xmlns="http://www.w3.org/2000/svg">
    <g filter="url(#filter0_d_54_10463)">
        <path d="M5 24C5 12.9543 13.9543 4 25 4C36.0457 4 45 12.9543 45 24C45 35.0457 36.0457 44 25 44C13.9543 44 5 35.0457 5 24Z" fill="white" shape-rendering="crispEdges"/>
        <path d="M33.0307 29.0306L30.0307 32.0306C29.89 32.1713 29.6991 32.2503 29.5001 32.2503C29.3011 32.2503 29.1102 32.1713 28.9695 32.0306C28.8287 31.8898 28.7497 31.699 28.7497 31.4999C28.7497 31.3009 28.8287 31.11 28.9695 30.9693L30.6898 29.2499H17.5001C17.3012 29.2499 17.1104 29.1709 16.9698 29.0303C16.8291 28.8896 16.7501 28.6988 16.7501 28.4999C16.7501 28.301 16.8291 28.1103 16.9698 27.9696C17.1104 27.8289 17.3012 27.7499 17.5001 27.7499H30.6898L28.9695 26.0306C28.8287 25.8898 28.7497 25.699 28.7497 25.4999C28.7497 25.3009 28.8287 25.11 28.9695 24.9693C29.1102 24.8286 29.3011 24.7495 29.5001 24.7495C29.6991 24.7495 29.89 24.8286 30.0307 24.9693L33.0307 27.9693C33.1005 28.039 33.1558 28.1217 33.1935 28.2127C33.2313 28.3038 33.2507 28.4014 33.2507 28.4999C33.2507 28.5985 33.2313 28.6961 33.1935 28.7871C33.1558 28.8782 33.1005 28.9609 33.0307 29.0306ZM19.9695 23.0306C20.1102 23.1713 20.3011 23.2503 20.5001 23.2503C20.6991 23.2503 20.89 23.1713 21.0307 23.0306C21.1715 22.8898 21.2505 22.699 21.2505 22.4999C21.2505 22.3009 21.1715 22.11 21.0307 21.9693L19.3104 20.2499H32.5001C32.699 20.2499 32.8898 20.1709 33.0304 20.0303C33.1711 19.8896 33.2501 19.6988 33.2501 19.4999C33.2501 19.301 33.1711 19.1103 33.0304 18.9696C32.8898 18.8289 32.699 18.7499 32.5001 18.7499H19.3104L21.0307 17.0306C21.1715 16.8898 21.2505 16.699 21.2505 16.4999C21.2505 16.3009 21.1715 16.11 21.0307 15.9693C20.89 15.8286 20.6991 15.7495 20.5001 15.7495C20.3011 15.7495 20.1102 15.8286 19.9695 15.9693L16.9695 18.9693C16.8997 19.039 16.8444 19.1217 16.8067 19.2127C16.7689 19.3038 16.7495 19.4014 16.7495 19.4999C16.7495 19.5985 16.7689 19.6961 16.8067 19.7871C16.8444 19.8782 16.8997 19.9609 16.9695 20.0306L19.9695 23.0306Z" fill="#166534"/>
    </g>
    <defs>
        <filter id="filter0_d_54_10463" x="0" y="0" width="50" height="50" filterUnits="userSpaceOnUse" color-interpolation-filters="sRGB">
            <feFlood flood-opacity="0" result="BackgroundImageFix"/>
            <feColorMatrix in="SourceAlpha" type="matrix" values="0 0 0 0 0 0 0 0 0 0 0 0 0 0 0 0 0 0 127 0" result="hardAlpha"/>
            <feOffset dy="1"/>
            <feGaussianBlur stdDeviation="2.5"/>
            <feComposite in2="hardAlpha" operator="out"/>
            <feColorMatrix type="matrix" values="0 0 0 0 0.0784314 0 0 0 0 0.32549 0 0 0 0 0.176471 0 0 0 0.2 0"/>
            <feBlend mode="normal" in2="BackgroundImageFix" result="effect1_dropShadow_54_10463"/>
            <feBlend mode="normal" in="SourceGraphic" in2="effect1_dropShadow_54_10463" result="shape"/>
        </filter>
    </defs>
</svg>
