<svg width="17" height="16" viewBox="0 0 17 16" fill="none" xmlns="http://www.w3.org/2000/svg">
    <path d="M15.9043 3.44948C15.8759 3.3792 15.8308 3.31687 15.773 3.26782C15.7152 3.21878 15.6463 3.18449 15.5724 3.1679C15.4984 3.15131 15.4215 3.15291 15.3483 3.17256C15.2751 3.19221 15.2077 3.22933 15.152 3.28073L11.9434 6.24166L10.4192 5.91432L10.0918 4.3901L13.0528 1.18151C13.1042 1.12578 13.1413 1.05842 13.1609 0.985197C13.1806 0.911975 13.1822 0.83508 13.1656 0.761105C13.149 0.68713 13.1147 0.618284 13.0657 0.56047C13.0166 0.502656 12.9543 0.457599 12.884 0.429165C11.8665 0.0166863 10.7484 -0.0799695 9.67517 0.151776C8.60197 0.383521 7.62337 0.932936 6.86673 1.72852C6.11008 2.52411 5.61042 3.52903 5.43278 4.6125C5.25514 5.69597 5.40774 6.80783 5.87072 7.80338L1.07463 11.944C1.06603 11.951 1.05822 11.9589 1.04963 11.9674C0.83187 12.1851 0.659114 12.4435 0.541225 12.7279C0.423336 13.0124 0.362621 13.3172 0.362549 13.6251C0.362402 14.2469 0.609271 14.8433 1.04885 15.2831C1.48842 15.7229 2.0847 15.97 2.7065 15.9701C3.3283 15.9703 3.92469 15.7234 4.36447 15.2839C4.37306 15.2753 4.38088 15.2674 4.38791 15.2589L8.52853 10.4628C9.52409 10.9257 10.6359 11.0783 11.7194 10.9007C12.8029 10.7231 13.8078 10.2234 14.6034 9.46675C15.399 8.71011 15.9484 7.73151 16.1801 6.65831C16.4119 5.5851 16.3152 4.46699 15.9028 3.44948H15.9043ZM10.8332 10.0315C10.0681 10.0312 9.31557 9.83713 8.64572 9.46745C8.55153 9.41529 8.44225 9.39714 8.33626 9.41606C8.23026 9.43499 8.13402 9.48982 8.06369 9.57135L3.69025 14.6315C3.42471 14.8859 3.07007 15.0262 2.70235 15.0222C2.33463 15.0183 1.98308 14.8705 1.72305 14.6104C1.46302 14.3504 1.31519 13.9988 1.31125 13.6311C1.30731 13.2634 1.44757 12.9088 1.70197 12.6432L6.76135 8.27291C6.8435 8.20231 6.89866 8.10544 6.91747 7.99876C6.93627 7.89209 6.91754 7.78219 6.86447 7.68776C6.44022 6.92034 6.24775 6.04631 6.31041 5.17167C6.37307 4.29703 6.68816 3.45936 7.21748 2.76026C7.74679 2.06115 8.46758 1.53065 9.29243 1.23308C10.1173 0.935517 11.0107 0.883678 11.8645 1.08385L9.23791 3.93229C9.18705 3.98755 9.15021 4.05422 9.1305 4.12668C9.11079 4.19915 9.10877 4.27529 9.12463 4.3487L9.56603 6.40729C9.58496 6.49565 9.62903 6.57665 9.69293 6.64055C9.75683 6.70445 9.83783 6.74852 9.92619 6.76745L11.9848 7.20885C12.0582 7.22471 12.1343 7.22269 12.2068 7.20298C12.2793 7.18327 12.3459 7.14643 12.4012 7.09557L15.2465 4.46901C15.401 5.13381 15.4034 5.8249 15.2537 6.49078C15.1039 7.15665 14.8058 7.78016 14.3816 8.31483C13.9574 8.84949 13.418 9.28154 12.8037 9.57877C12.1893 9.87601 11.5157 10.0308 10.8332 10.0315Z" fill="black" fill-opacity="0.5"/>
</svg>
