<svg width="19" height="19" viewBox="0 0 19 19" fill="none" xmlns="http://www.w3.org/2000/svg">
    <path d="M18.7172 16.239L15.6056 1.44525C15.5654 1.25179 15.4873 1.06818 15.3759 0.904986C15.2645 0.741788 15.1219 0.602213 14.9564 0.494277C14.7909 0.386341 14.6057 0.312173 14.4114 0.276033C14.2171 0.239893 14.0176 0.242494 13.8244 0.283685L9.43594 1.22681C9.04776 1.3118 8.70885 1.54662 8.49291 1.8802C8.27696 2.21377 8.20146 2.61911 8.28281 3.00806L11.3944 17.8018C11.4637 18.1393 11.6471 18.4427 11.9138 18.6609C12.1805 18.8791 12.5142 18.9988 12.8588 18.9999C12.9653 18.9998 13.0715 18.9885 13.1756 18.9662L17.5641 18.0231C17.9527 17.9379 18.292 17.7026 18.5079 17.3684C18.7239 17.0343 18.7991 16.6283 18.7172 16.239ZM9.75 2.7015C9.75 2.69587 9.75 2.69306 9.75 2.69306L14.1375 1.75556L14.4497 3.24337L10.0622 4.18744L9.75 2.7015ZM10.6875 7.14337L10.3734 5.65275L14.7628 4.70962L15.0759 6.20025L10.6875 7.14337ZM17.25 16.5568L12.8625 17.4943L12.5503 16.0065L16.9378 15.0624L17.25 16.5484C17.25 16.554 17.25 16.5568 17.25 16.5568ZM6.75 0.999935H2.25C1.85218 0.999935 1.47064 1.15797 1.18934 1.43928C0.908035 1.72058 0.75 2.10211 0.75 2.49994V17.4999C0.75 17.8978 0.908035 18.2793 1.18934 18.5606C1.47064 18.8419 1.85218 18.9999 2.25 18.9999H6.75C7.14782 18.9999 7.52936 18.8419 7.81066 18.5606C8.09196 18.2793 8.25 17.8978 8.25 17.4999V2.49994C8.25 2.10211 8.09196 1.72058 7.81066 1.43928C7.52936 1.15797 7.14782 0.999935 6.75 0.999935ZM2.25 2.49994H6.75V3.99994H2.25V2.49994ZM6.75 17.4999H2.25V15.9999H6.75V17.4999Z" fill="#14B8A6"/>
</svg>
