<svg width="16" height="17" viewBox="0 0 16 17" fill="none" xmlns="http://www.w3.org/2000/svg">
    <path d="M14.5833 1.65625H12.552V0.875C12.552 0.75068 12.5026 0.631451 12.4147 0.543544C12.3268 0.455636 12.2076 0.40625 12.0833 0.40625C11.9589 0.40625 11.8397 0.455636 11.7518 0.543544C11.6639 0.631451 11.6145 0.75068 11.6145 0.875V1.65625H5.052V0.875C5.052 0.75068 5.00262 0.631451 4.91471 0.543544C4.8268 0.455636 4.70757 0.40625 4.58325 0.40625C4.45893 0.40625 4.3397 0.455636 4.2518 0.543544C4.16389 0.631451 4.1145 0.75068 4.1145 0.875V1.65625H2.08325C1.79317 1.65625 1.51497 1.77148 1.30985 1.9766C1.10474 2.18172 0.989502 2.45992 0.989502 2.75V15.25C0.989502 15.5401 1.10474 15.8183 1.30985 16.0234C1.51497 16.2285 1.79317 16.3438 2.08325 16.3438H14.5833C14.8733 16.3438 15.1515 16.2285 15.3566 16.0234C15.5618 15.8183 15.677 15.5401 15.677 15.25V2.75C15.677 2.45992 15.5618 2.18172 15.3566 1.9766C15.1515 1.77148 14.8733 1.65625 14.5833 1.65625ZM2.08325 2.59375H4.1145V3.375C4.1145 3.49932 4.16389 3.61855 4.2518 3.70646C4.3397 3.79436 4.45893 3.84375 4.58325 3.84375C4.70757 3.84375 4.8268 3.79436 4.91471 3.70646C5.00262 3.61855 5.052 3.49932 5.052 3.375V2.59375H11.6145V3.375C11.6145 3.49932 11.6639 3.61855 11.7518 3.70646C11.8397 3.79436 11.9589 3.84375 12.0833 3.84375C12.2076 3.84375 12.3268 3.79436 12.4147 3.70646C12.5026 3.61855 12.552 3.49932 12.552 3.375V2.59375H14.5833C14.6247 2.59375 14.6644 2.61021 14.6937 2.63951C14.723 2.66882 14.7395 2.70856 14.7395 2.75V5.40625H1.927V2.75C1.927 2.70856 1.94346 2.66882 1.97277 2.63951C2.00207 2.61021 2.04181 2.59375 2.08325 2.59375ZM14.5833 15.4062H2.08325C2.04181 15.4062 2.00207 15.3898 1.97277 15.3605C1.94346 15.3312 1.927 15.2914 1.927 15.25V6.34375H14.7395V15.25C14.7395 15.2914 14.723 15.3312 14.6937 15.3605C14.6644 15.3898 14.6247 15.4062 14.5833 15.4062Z" fill="black" fill-opacity="0.5"/>
</svg>
