<svg width="21" height="18" viewBox="0 0 21 18" fill="none" xmlns="http://www.w3.org/2000/svg">
    <path d="M18.75 3.75001H10.8103L8.25 1.18969C8.11122 1.0498 7.94601 0.938889 7.76398 0.863407C7.58196 0.787925 7.38674 0.749378 7.18969 0.750008H2.25C1.85218 0.750008 1.47064 0.908043 1.18934 1.18935C0.908035 1.47065 0.75 1.85218 0.75 2.25001V15.8081C0.750496 16.1904 0.902567 16.5568 1.17286 16.8271C1.44316 17.0974 1.80962 17.2495 2.19188 17.25H18.8334C19.209 17.2495 19.569 17.1001 19.8346 16.8346C20.1001 16.569 20.2495 16.209 20.25 15.8334V5.25001C20.25 4.85218 20.092 4.47065 19.8107 4.18935C19.5294 3.90804 19.1478 3.75001 18.75 3.75001ZM7.18969 2.25001L8.68969 3.75001H2.25V2.25001H7.18969ZM18.75 15.75H2.25V5.25001H18.75V15.75ZM10.5 7.50001C10.6989 7.50001 10.8897 7.57903 11.0303 7.71968C11.171 7.86033 11.25 8.0511 11.25 8.25001V9.75001H12.75C12.9489 9.75001 13.1397 9.82903 13.2803 9.96968C13.421 10.1103 13.5 10.3011 13.5 10.5C13.5 10.6989 13.421 10.8897 13.2803 11.0303C13.1397 11.171 12.9489 11.25 12.75 11.25H11.25V12.75C11.25 12.9489 11.171 13.1397 11.0303 13.2803C10.8897 13.421 10.6989 13.5 10.5 13.5C10.3011 13.5 10.1103 13.421 9.96967 13.2803C9.82902 13.1397 9.75 12.9489 9.75 12.75V11.25H8.25C8.05109 11.25 7.86032 11.171 7.71967 11.0303C7.57902 10.8897 7.5 10.6989 7.5 10.5C7.5 10.3011 7.57902 10.1103 7.71967 9.96968C7.86032 9.82903 8.05109 9.75001 8.25 9.75001H9.75V8.25001C9.75 8.0511 9.82902 7.86033 9.96967 7.71968C10.1103 7.57903 10.3011 7.50001 10.5 7.50001Z" fill="black" fill-opacity="0.8"/>
</svg>
