<svg width="17" height="16" viewBox="0 0 17 16" fill="none" xmlns="http://www.w3.org/2000/svg">
    <path d="M16.5938 7.37485C16.5927 6.42205 16.2138 5.50856 15.54 4.83483C14.8663 4.16109 13.9528 3.78214 13 3.7811H9.88674C9.68518 3.77016 5.66018 3.50298 1.82815 0.288914C1.66879 0.155166 1.47458 0.0696456 1.26832 0.0423875C1.06206 0.0151294 0.85231 0.0472644 0.663673 0.135022C0.475035 0.222779 0.315341 0.362518 0.203327 0.537842C0.0913136 0.713165 0.0316282 0.9168 0.0312747 1.12485V13.6249C0.0298672 13.8331 0.0886074 14.0374 0.200443 14.2131C0.312278 14.3888 0.472455 14.5286 0.661743 14.6155C0.806891 14.683 0.964955 14.7181 1.12502 14.7186C1.38256 14.7188 1.63176 14.6274 1.82815 14.4608C4.95315 11.842 8.20081 11.1795 9.40627 11.0178V13.6741C9.40622 13.8541 9.45062 14.0314 9.53552 14.1902C9.62043 14.3489 9.74322 14.4843 9.89299 14.5842L10.7524 15.1569C10.8977 15.2537 11.0641 15.3143 11.2377 15.3336C11.4113 15.3529 11.5869 15.3303 11.75 15.2679C11.9131 15.2054 12.0588 15.1047 12.175 14.9744C12.2912 14.844 12.3746 14.6877 12.418 14.5186L13.3656 10.9475C14.25 10.8558 15.0691 10.4401 15.6651 9.78047C16.2611 9.12082 16.592 8.2639 16.5938 7.37485ZM1.22581 13.7436C1.20309 13.7628 1.17538 13.7751 1.14592 13.779C1.11646 13.783 1.08648 13.7785 1.05949 13.766C1.03251 13.7536 1.00964 13.7337 0.993568 13.7087C0.9775 13.6837 0.968899 13.6546 0.968775 13.6249V1.12485C0.96793 1.09511 0.976044 1.06579 0.992065 1.04072C1.00809 1.01564 1.03127 0.99596 1.05862 0.984226C1.0794 0.974378 1.10203 0.969052 1.12502 0.968601C1.1613 0.968719 1.1963 0.98205 1.22346 1.0061C4.66096 3.89048 8.17659 4.53657 9.40393 4.67798V10.0686C8.17893 10.2131 4.66409 10.86 1.22581 13.7436ZM11.5102 14.2905C11.5041 14.3148 11.4923 14.3373 11.4757 14.356C11.4592 14.3748 11.4383 14.3893 11.415 14.3984C11.3916 14.4074 11.3664 14.4107 11.3415 14.408C11.3166 14.4052 11.2927 14.3966 11.2719 14.3827L10.4125 13.81C10.3911 13.7957 10.3735 13.7763 10.3614 13.7535C10.3492 13.7308 10.3429 13.7053 10.343 13.6795V10.9686H12.3899L11.5102 14.2905ZM13 10.0311H10.3438V4.7186H13C13.7045 4.7186 14.3801 4.99846 14.8783 5.4966C15.3764 5.99474 15.6563 6.67037 15.6563 7.37485C15.6563 8.07933 15.3764 8.75496 14.8783 9.2531C14.3801 9.75125 13.7045 10.0311 13 10.0311Z" fill="black" fill-opacity="0.5"/>
</svg>
