<svg width="17" height="16" viewBox="0 0 17 16" fill="none" xmlns="http://www.w3.org/2000/svg">
    <path d="M8.80199 4.24993V7.73431L11.6996 9.47259C11.8064 9.53661 11.8833 9.6404 11.9134 9.76113C11.9436 9.88186 11.9246 10.0096 11.8606 10.1163C11.7966 10.223 11.6928 10.2999 11.572 10.3301C11.4513 10.3603 11.3235 10.3413 11.2168 10.2773L8.09183 8.40227C8.02241 8.36056 7.96498 8.30158 7.92513 8.23107C7.88529 8.16055 7.8644 8.08092 7.86449 7.99993V4.24993C7.86449 4.12561 7.91388 4.00638 8.00178 3.91847C8.08969 3.83057 8.20892 3.78118 8.33324 3.78118C8.45756 3.78118 8.57679 3.83057 8.6647 3.91847C8.7526 4.00638 8.80199 4.12561 8.80199 4.24993ZM15.8332 2.53118C15.7089 2.53118 15.5897 2.58057 15.5018 2.66847C15.4139 2.75638 15.3645 2.87561 15.3645 2.99993V4.82493C14.7801 4.13509 14.1973 3.48665 13.5262 2.80696C12.5056 1.78631 11.2068 1.08906 9.79212 0.802348C8.37747 0.515631 6.90969 0.652158 5.57219 1.19487C4.23469 1.73758 3.08677 2.66241 2.27188 3.8538C1.45699 5.04518 1.01127 6.45029 0.990392 7.89356C0.969519 9.33682 1.37443 10.7542 2.15452 11.9687C2.93462 13.1831 4.0553 14.1408 5.37655 14.7219C6.6978 15.3031 8.16101 15.482 9.58337 15.2363C11.0057 14.9907 12.3241 14.3313 13.3739 13.3406C13.4612 13.2545 13.5113 13.1376 13.5135 13.015C13.5157 12.8924 13.4697 12.7739 13.3855 12.6848C13.3013 12.5957 13.1855 12.5431 13.063 12.5383C12.9405 12.5336 12.821 12.577 12.7301 12.6593C11.8142 13.5231 10.664 14.0979 9.42323 14.3118C8.1825 14.5258 6.90623 14.3693 5.75389 13.8621C4.60154 13.3549 3.6242 12.5194 2.94397 11.4599C2.26374 10.4004 1.91078 9.164 1.92919 7.90509C1.94759 6.64618 2.33655 5.42061 3.04746 4.38148C3.75837 3.34235 4.75972 2.53574 5.92641 2.06242C7.09309 1.58911 8.37338 1.47006 9.60733 1.72017C10.8413 1.97027 11.9742 2.57844 12.8645 3.46868C13.5864 4.19993 14.2067 4.89837 14.8418 5.65618H12.7082C12.5839 5.65618 12.4647 5.70557 12.3768 5.79347C12.2889 5.88138 12.2395 6.00061 12.2395 6.12493C12.2395 6.24925 12.2889 6.36848 12.3768 6.45639C12.4647 6.54429 12.5839 6.59368 12.7082 6.59368H15.8332C15.9576 6.59368 16.0768 6.54429 16.1647 6.45639C16.2526 6.36848 16.302 6.24925 16.302 6.12493V2.99993C16.302 2.87561 16.2526 2.75638 16.1647 2.66847C16.0768 2.58057 15.9576 2.53118 15.8332 2.53118Z" fill="black" fill-opacity="0.5"/>
</svg>
